<?xml version="1.0" standalone="no"?>
<!DOCTYPE svg PUBLIC "-//W3C//DTD SVG 20010904//EN"
 "http://www.w3.org/TR/2001/REC-SVG-20010904/DTD/svg10.dtd">
<svg version="1.0" xmlns="http://www.w3.org/2000/svg"
 width="472.000000pt" height="532.000000pt" viewBox="0 0 472.000000 532.000000"
 preserveAspectRatio="xMidYMid meet">

<g transform="translate(0.000000,532.000000) scale(0.100000,-0.100000)"
fill="#000000" stroke="none">
<path d="M2200 5294 c-123 -32 -262 -125 -334 -222 -85 -116 -126 -239 -126
-379 0 -110 14 -172 62 -273 33 -69 56 -100 122 -165 48 -47 106 -93 143 -113
133 -70 300 -90 447 -52 113 29 189 73 282 165 136 134 192 278 182 473 -4 68
-13 118 -30 169 -68 192 -237 348 -433 398 -75 19 -241 19 -315 -1z"/>
<path d="M974 4850 c-218 -33 -398 -200 -443 -408 -75 -353 228 -685 580 -634
271 39 459 253 459 523 0 138 -45 251 -140 352 -121 129 -293 192 -456 167z"/>
<path d="M3595 4850 c-206 -34 -377 -189 -431 -393 -28 -106 -12 -262 38 -361
55 -110 159 -208 270 -253 392 -159 803 184 717 599 -27 131 -141 284 -256
346 -104 54 -235 79 -338 62z"/>
<path d="M2051 3960 c-373 -51 -691 -334 -786 -696 -25 -96 -36 -229 -33 -389
l3 -150 1125 0 1125 0 3 140 c8 345 -53 555 -220 761 -113 141 -311 266 -498
315 -77 20 -113 22 -370 25 -157 1 -314 -2 -349 -6z"/>
<path d="M725 3690 c-263 -35 -501 -219 -598 -463 -41 -102 -57 -202 -57 -352
l0 -135 514 0 514 0 5 213 c4 185 8 224 30 308 32 122 85 243 146 336 47 70
48 72 25 77 -25 7 -414 26 -479 25 -22 -1 -67 -5 -100 -9z"/>
<path d="M3623 3690 c-90 -4 -178 -11 -197 -14 l-34 -6 48 -73 c62 -92 112
-207 146 -333 24 -88 27 -122 31 -311 l5 -213 514 0 514 0 0 135 c0 273 -67
447 -235 610 -138 135 -304 202 -514 209 -64 2 -189 1 -278 -4z"/>
<path d="M12 2323 c3 -284 3 -289 28 -337 14 -27 43 -64 66 -82 64 -52 109
-64 253 -64 185 0 229 -18 260 -106 7 -22 31 -81 53 -132 54 -130 53 -135 -87
-282 -125 -131 -140 -158 -139 -260 0 -105 19 -132 250 -363 237 -238 259
-252 374 -251 101 0 139 22 271 150 132 128 135 129 289 63 52 -22 112 -47
132 -56 65 -28 72 -47 78 -238 l6 -170 32 -51 c18 -29 48 -64 67 -79 72 -54
81 -56 416 -56 281 0 314 2 352 19 64 29 103 67 136 134 30 59 31 66 31 193 0
149 4 181 28 213 15 19 153 84 273 128 60 22 91 5 203 -104 126 -124 165 -146
266 -146 115 -1 137 13 374 251 231 231 250 258 250 363 1 102 -14 129 -139
260 -140 147 -141 152 -87 282 22 51 46 110 53 132 31 88 75 106 260 106 144
0 189 12 253 64 23 18 52 55 66 82 25 48 25 53 28 337 l3 287 -95 0 -95 0 -3
-265 c-4 -336 15 -308 -211 -315 -183 -6 -230 -20 -300 -88 -44 -42 -57 -65
-103 -177 -18 -44 -44 -107 -58 -140 -33 -77 -35 -161 -5 -241 18 -47 43 -79
130 -170 155 -160 160 -137 -84 -381 -243 -243 -222 -238 -375 -90 -136 131
-177 152 -292 151 -79 0 -93 -4 -195 -47 -175 -76 -213 -97 -255 -144 -65 -74
-80 -130 -80 -299 l0 -146 -29 -29 -29 -29 -272 0 -272 0 -29 29 -29 29 0 146
c0 169 -15 225 -80 299 -42 47 -80 68 -255 144 -102 43 -116 47 -195 47 -115
1 -156 -20 -292 -151 -153 -148 -132 -153 -375 90 -244 244 -239 221 -84 381
87 91 112 123 130 170 30 80 28 164 -5 241 -14 33 -40 96 -58 140 -46 112 -59
135 -103 177 -70 68 -116 82 -301 88 l-164 5 -24 28 -24 28 0 260 0 259 -95 0
-96 0 3 -287z"/>
<path d="M972 2548 c-14 -97 -7 -360 12 -457 113 -558 552 -995 1116 -1108
133 -27 413 -24 549 6 275 59 524 201 726 413 140 147 242 313 308 504 56 163
71 256 71 444 0 91 -3 179 -6 195 -3 17 -6 38 -7 48 -1 15 -13 17 -101 17
l-100 0 8 -47 c4 -27 7 -129 6 -228 -1 -163 -3 -189 -28 -280 -84 -309 -294
-583 -566 -739 -606 -347 -1373 -113 -1682 514 -90 184 -122 341 -115 565 3
88 9 172 12 188 l7 27 -100 0 -100 0 -10 -62z"/>
</g>
</svg>
